<?xml version="1.0" encoding="iso-8859-1"?>
<!-- Uploaded to: SVG Repo, www.svgrepo.com, Generator: SVG Repo Mixer Tools -->
<svg version="1.1" id="Layer_1" xmlns="http://www.w3.org/2000/svg" xmlns:xlink="http://www.w3.org/1999/xlink" 
	 viewBox="0 0 512.044 512.044" xml:space="preserve">
<g>
	
		<rect x="446.121" y="335.111" transform="matrix(0.7071 -0.7071 0.7071 0.7071 -132.9848 440.9132)" style="fill:#25B6D2;" width="39.232" height="91.745"/>
	<polygon style="fill:#25B6D2;" points="390.254,391.574 372.462,289.165 474.871,306.957 	"/>
</g>
<path style="fill:#FFFFFF;" d="M22.264,88.753h415.535c10.088,0,18.264,8.176,18.264,18.264l0,0v118.73
	c0.016,10.08-8.144,18.272-18.224,18.288c-0.008,0-0.024,0-0.032,0H22.272C12.184,244.044,4.008,235.868,4,225.78
	c0-0.016,0-0.024,0-0.04V107.01C4,96.93,12.176,88.753,22.264,88.753C22.256,88.753,22.264,88.753,22.264,88.753z"/>
<path style="fill:#415E72;" d="M437.807,92.753c7.872,0.008,14.256,6.392,14.264,14.264V225.74
	c0.008,7.888-6.376,14.288-14.264,14.296l0,0H22.264C14.376,240.028,7.992,233.628,8,225.74l0,0V107.018
	c0.008-7.872,6.392-14.256,14.264-14.264L437.807,92.753 M437.807,84.753H22.264C9.984,84.785,0.032,94.738,0,107.018V225.74
	c0.016,12.296,9.968,22.264,22.264,22.296h415.543c12.28-0.032,22.232-9.984,22.264-22.264V107.018
	C460.039,94.738,450.087,84.785,437.807,84.753z"/>
<g>
	<path style="fill:#E04F5F;" d="M72.609,128.394l9.984,38.401c2.176,8.416,4.2,16.208,5.6,24h0.472
		c1.712-7.648,4.2-15.76,6.696-23.864l12.32-38.529h11.52l11.696,37.745c2.808,9.04,5,16.992,6.712,24.648h0.472
		c1.464-8.264,3.392-16.44,5.768-24.488l10.752-37.897h13.6l-24.336,75.489h-12.48l-11.536-36.001
		c-2.664-8.144-4.904-16.424-6.712-24.8h-0.336c-1.8,8.448-4.088,16.784-6.856,24.96l-12.168,35.873h-12.48l-22.72-75.537
		L72.609,128.394L72.609,128.394z"/>
	<path style="fill:#E04F5F;" d="M189.251,128.394l9.984,38.401c2.176,8.416,4.2,16.208,5.6,24h0.472
		c1.712-7.648,4.2-15.76,6.696-23.864l12.32-38.529h11.536l11.696,37.745c2.808,9.04,5,16.992,6.712,24.648h0.472
		c1.464-8.264,3.392-16.44,5.768-24.488l10.752-37.897h13.6l-24.336,75.489h-12.52l-11.536-36.001
		c-2.664-8.144-4.904-16.424-6.712-24.8h-0.312c-1.8,8.448-4.088,16.784-6.856,24.96l-12.168,35.873h-12.48l-22.736-75.537H189.251z
		"/>
	<path style="fill:#E04F5F;" d="M305.885,128.394l9.984,38.401c2.176,8.416,4.2,16.208,5.6,24h0.472
		c1.712-7.648,4.2-15.76,6.696-23.864l12.32-38.529h11.536l11.696,37.745c2.808,9.04,5,16.992,6.712,24.648h0.472
		c1.464-8.264,3.392-16.44,5.768-24.488l10.752-37.897h13.6l-24.336,75.489h-12.48l-11.536-36.001
		c-2.664-8.144-4.904-16.424-6.712-24.8h-0.312c-1.8,8.448-4.088,16.784-6.856,24.96l-12.168,35.873h-12.48l-22.768-75.537
		L305.885,128.394L305.885,128.394z"/>
</g>
</svg>